<svg width="32" height="32" viewBox="0 0 32 32" fill="none" xmlns="http://www.w3.org/2000/svg">
<circle cx="16" cy="16" r="16" fill="black"/>
<path d="M14.5479 6.45875L14.6008 6.53803V7.43653H17.7455L17.7191 7.19869V6.69659H17.7455L17.772 6.96085V7.43653H17.9834V7.04013H18.0098V7.62151L17.957 7.51581L17.772 7.48938L17.7455 7.85935L17.7191 8.04434H17.6927L17.7191 7.48938H14.5744L14.6008 7.70079V10.6077L16.6885 10.5813L16.7413 10.6077L16.7149 10.6606L14.5744 10.6341L14.6008 13.7525H15.3936V13.8053L14.6008 13.8317V14.466L14.5744 15.9723H14.5479V13.8053H11.456L11.4032 13.7789L11.4296 14.7038V15.4702L11.4032 16.9236H13.9401L13.8873 17.0293V16.9765H11.4296V17.5314L11.3768 17.5843L11.3503 16.9236V13.7525L14.5479 13.7789V10.6341H12.6981V10.6077H14.5479V7.48938H14.1251V7.43653H14.5479V6.45875Z" fill="white"/>
<path d="M20.9168 13.911H20.9432V14.8095L20.9168 16.9236H22.4495L22.5024 16.8972V16.9765H20.9168V20.0948H23.8765L23.903 20.0419V20.1212L23.718 20.1476H21.366L20.9168 20.1212V22.2618H20.8903L20.8639 20.1476H20.4411L19.8333 20.1212V20.0948H20.8903L20.8639 16.9765H18.4591L18.5384 16.9236H20.8903V14.6774L20.9168 13.911Z" fill="white"/>
<path d="M11.3768 17.6636H11.4032V20.0948H12.4867V20.1741L11.4561 20.1477L11.4297 20.2798V22.1296L11.4032 22.3146H11.3768L11.3504 20.1477H8.94558L8.39062 20.1212L8.41705 20.0419V20.0948H11.3768V17.6636Z" fill="white"/>
<path d="M8.23228 21.0726H8.25871V23.266H11.0071V23.2924H8.25871V26.1993H8.23228L8.20586 25.9615V23.2924H7.04309V23.266L8.20586 23.2396V21.2047L8.23228 21.0726Z" fill="white"/>
<path d="M24.0615 20.9669H24.0879V23.266H25.2771L25.3036 23.1867L25.33 23.3188L24.0879 23.2924V26.0936H24.0615L24.0351 23.3188L21.2867 23.2924V23.266H24.0615V20.9669Z" fill="white"/>
<path d="M17.7191 12.6161H17.7456L17.772 13.7524H21.0489L21.1017 13.726V13.8053H17.7456V15.1002H17.7191V13.8053H17.032L17.0056 13.8582L17.032 13.7524L17.7191 13.7789V12.6161Z" fill="white"/>
<path d="M19.5071 10.2128L25.0819 22.6337C26.5466 25.73 22.7323 28.713 21.0719 25.5189L15.7417 13.9293L18.2846 8.15892C19.3092 5.82719 15.8211 3.52502 14.3725 5.90945C14.1746 6.36511 9.15632 17.059 6.49935 22.6337C4.98111 26.1701 8.99103 28.7619 10.7538 25.5189L14.3725 16.8144" stroke="url(#paint0_linear_1092_1615)" stroke-linecap="round" stroke-linejoin="round"/>
<defs>
<linearGradient id="paint0_linear_1092_1615" x1="17.7409" y1="10.9987" x2="0.988776" y2="31.35" gradientUnits="userSpaceOnUse">
<stop stop-color="#E0A7F3"/>
<stop offset="0.249051" stop-color="#8E9FF5"/>
<stop offset="1" stop-color="#82DA9C"/>
</linearGradient>
</defs>
</svg>
