<svg width="88" height="101" viewBox="0 0 88 101" fill="none" xmlns="http://www.w3.org/2000/svg">
<path d="M38.4646 8.75764L38.6944 9.10239V13.0096H52.3697L52.2548 11.9754V9.7919H52.3697L52.4846 10.9411V13.0096H53.404V11.2858H53.5189V13.814L53.2891 13.3544L52.4846 13.2395L52.3697 14.8483L52.2548 15.6527H52.1399L52.2548 13.2395H38.5795L38.6944 14.1588V26.7998L47.773 26.6849L48.0028 26.7998L47.8879 27.0297L38.5795 26.9148L38.6944 40.4751H42.142V40.705L38.6944 40.8199V43.5779L38.5795 50.1283H38.4646V40.705H25.0191L24.7893 40.59L24.9042 44.6122V47.9448L24.7893 54.2653H35.8215L35.5916 54.725V54.4952H24.9042V56.9085L24.6744 57.1383L24.5594 54.2653V40.4751L38.4646 40.59V26.9148H30.4203V26.7998H38.4646V13.2395H36.6259V13.0096H38.4646V8.75764Z" fill="#7D7777"/>
<path d="M66.1599 41.1646H66.2749V45.0719L66.1599 54.2653H72.8252L73.0551 54.1504V54.4952H66.1599V68.0556H79.0308L79.1457 67.8257V68.1705L78.3413 68.2854H68.1136L66.1599 68.1705V77.4789H66.045L65.9301 68.2854H64.0914L61.4483 68.1705V68.0556H66.045L65.9301 54.4952H55.4725L55.8173 54.2653H66.045V44.4973L66.1599 41.1646Z" fill="#74767A"/>
<path d="M24.6744 57.4831H24.7893V68.0555H29.501V68.4003L25.0191 68.2854L24.9042 68.86V76.9043L24.7893 77.7087H24.6744L24.5595 68.2854H14.1019L11.6886 68.1705L11.8035 67.8257V68.0555H24.6744V57.4831Z" fill="#7F8186"/>
<path d="M10.9991 72.3075H11.114V81.8458H23.0655V81.9607H11.114V94.6017H10.9991L10.8842 93.5674V81.9607H5.82776V81.8458L10.8842 81.7308V72.8821L10.9991 72.3075Z" fill="#84878C"/>
<path d="M79.8352 71.8479H79.9502V81.8458H85.1215L85.2364 81.501L85.3513 82.0756L79.9502 81.9607V94.142H79.8352L79.7203 82.0756L67.7688 81.9607V81.8458H79.8352V71.8479Z" fill="#76787C"/>
<path d="M52.2548 35.5336H52.3697L52.4846 40.4751H66.7345L66.9643 40.3602V40.705H52.3697V46.336H52.2548V40.705H49.2669L49.152 40.9348L49.2669 40.4751L52.2548 40.59V35.5336Z" fill="#6B6D72"/>
<path d="M60.029 25.0824L84.2714 79.0962C90.641 92.561 74.0541 105.533 66.8339 91.6428L43.6547 41.244L54.7127 16.151C59.1684 6.01126 44.2827 -3.98342 37.7004 6.36898C36.8399 8.35043 15.0175 54.8538 3.46334 79.0962C-3.1389 94.4748 14.2987 105.745 21.9641 91.6428L37.7004 53.7906" stroke="black" stroke-width="4" stroke-linecap="round" stroke-linejoin="round"/>
</svg>
