<svg width="85" height="98" viewBox="0 0 85 98" fill="none" xmlns="http://www.w3.org/2000/svg">
<path d="M37.4646 7.75764L37.6945 8.10239V12.0096H51.3698L51.2549 10.9754V8.7919H51.3698L51.4847 9.94109V12.0096H52.404V10.2858H52.519V12.814L52.2891 12.3544L51.4847 12.2395L51.3698 13.8483L51.2549 14.6527H51.1399L51.2549 12.2395H37.5796L37.6945 13.1588V25.7998L46.773 25.6849L47.0029 25.7998L46.888 26.0297L37.5796 25.9148L37.6945 39.4751H41.142V39.705L37.6945 39.8199V42.5779L37.5796 49.1283H37.4646V39.705H24.0192L23.7893 39.59L23.9043 43.6122V46.9448L23.7893 53.2653H34.8215L34.5917 53.725V53.4952H23.9043V55.9085L23.6744 56.1383L23.5595 53.2653V39.4751L37.4646 39.59V25.9148H29.4203V25.7998H37.4646V12.2395H35.6259V12.0096H37.4646V7.75764Z" fill="#cb5e8b62"/>
<path d="M65.1599 40.1646H65.2749V44.0719L65.1599 53.2653H71.8252L72.0551 53.1504V53.4952H65.1599V67.0556H78.0308L78.1457 66.8257V67.1705L77.3413 67.2854H67.1136L65.1599 67.1705V76.4789H65.045L64.9301 67.2854H63.0914L60.4483 67.1705V67.0556H65.045L64.9301 53.4952H54.4725L54.8173 53.2653H65.045V43.4973L65.1599 40.1646Z" fill="#cb5e8b62"/>
<path d="M23.6744 56.4831H23.7893V67.0555H28.501V67.4003L24.0191 67.2854L23.9042 67.86V75.9043L23.7893 76.7087H23.6744L23.5595 67.2854H13.1019L10.6886 67.1705L10.8035 66.8257V67.0555H23.6744V56.4831Z" fill="#cb5e8b62"/>
<path d="M9.99909 71.3075H10.114V80.8458H22.0655V80.9607H10.114V93.6017H9.99909L9.88417 92.5674V80.9607H4.82776V80.8458L9.88417 80.7308V71.8821L9.99909 71.3075Z" fill="#cb5e8b62"/>
<path d="M78.8352 70.8479H78.9502V80.8458H84.1215L84.2364 80.501L84.3513 81.0756L78.9502 80.9607V93.142H78.8352L78.7203 81.0756L66.7688 80.9607V80.8458H78.8352V70.8479Z" fill="#cb5e8b62"/>
<path d="M51.2548 34.5336H51.3698L51.4847 39.4751H65.7346L65.9644 39.3602V39.705H51.3698V45.336H51.2548V39.705H48.267L48.152 39.9348L48.267 39.4751L51.2548 39.59V34.5336Z" fill="#cb5e8b62"/>
<path d="M59.029 24.0824L83.2714 78.0962C89.641 91.561 73.0541 104.533 65.8339 90.6428L42.6547 40.244L53.7127 15.151C58.1684 5.01126 43.2827 -4.98342 36.7004 5.36898C35.8399 7.35043 14.0175 53.8538 2.46334 78.0962C-4.1389 93.4748 13.2987 104.745 20.9641 90.6428L36.7004 52.7906" stroke="#cb5e8b62" stroke-width="0.5" stroke-linecap="round" stroke-linejoin="round"/>
</svg>
