<svg width="88" height="101" viewBox="0 0 88 101" fill="none" xmlns="http://www.w3.org/2000/svg">
<path d="M38.4646 8.76494L38.6944 9.10969V13.0169H52.3697L52.2548 11.9827V9.7992H52.3697L52.4846 10.9484V13.0169H53.404V11.2931H53.5189V13.8213L53.2891 13.3617L52.4846 13.2468L52.3697 14.8556L52.2548 15.66H52.1399L52.2548 13.2468H38.5795L38.6944 14.1661V26.8071L47.773 26.6922L48.0028 26.8071L47.8879 27.037L38.5795 26.9221L38.6944 40.4824H42.142V40.7123L38.6944 40.8272V43.5852L38.5795 50.1356H38.4646V40.7123H25.0191L24.7893 40.5973L24.9042 44.6195V47.9521L24.7893 54.2726H35.8215L35.5916 54.7323V54.5025H24.9042V56.9158L24.6744 57.1456L24.5594 54.2726V40.4824L38.4646 40.5973V26.9221H30.4203V26.8071H38.4646V13.2468H36.6259V13.0169H38.4646V8.76494Z" fill="#ED8BB3"/>
<path d="M66.1599 41.1719H66.2749V45.0792L66.1599 54.2726H72.8252L73.0551 54.1577V54.5025H66.1599V68.0629H79.0308L79.1457 67.833V68.1778L78.3413 68.2927H68.1136L66.1599 68.1778V77.4862H66.045L65.9301 68.2927H64.0914L61.4483 68.1778V68.0629H66.045L65.9301 54.5025H55.4725L55.8173 54.2726H66.045V44.5046L66.1599 41.1719Z" fill="#0345E9"/>
<path d="M24.6744 57.4904H24.7893V68.0628H29.501V68.4076L25.0191 68.2927L24.9042 68.8673V76.9116L24.7893 77.716H24.6744L24.5595 68.2927H14.1019L11.6886 68.1778L11.8035 67.833V68.0628H24.6744V57.4904Z" fill="#0345E9"/>
<path d="M10.9991 72.3148H11.114V81.8531H23.0655V81.968H11.114V94.609H10.9991L10.8842 93.5747V81.968H5.82776V81.8531L10.8842 81.7382V72.8894L10.9991 72.3148Z" fill="#067929"/>
<path d="M79.8352 71.8552H79.9502V81.8531H85.1215L85.2364 81.5083L85.3513 82.0829L79.9502 81.968V94.1493H79.8352L79.7203 82.0829L67.7688 81.968V81.8531H79.8352V71.8552Z" fill="#067929"/>
<path d="M52.2548 35.5409H52.3697L52.4846 40.4824H66.7345L66.9643 40.3675V40.7123H52.3697V46.3433H52.2548V40.7123H49.2669L49.152 40.9421L49.2669 40.4824L52.2548 40.5973V35.5409Z" fill="#ED8BB3"/>
<path d="M60.029 25.0897L84.2714 79.1036C90.641 92.5683 74.0541 105.54 66.8339 91.6501L43.6547 41.2514L54.7127 16.1583C59.1684 6.01856 44 -3.99269 37.7004 6.37628C36.8399 8.35774 15.0175 54.8611 3.46334 79.1036C-3.1389 94.4821 14.2987 105.753 21.9641 91.6501L37.7004 53.7979" stroke="url(#paint0_linear_1092_1523)" stroke-width="4" stroke-linecap="round" stroke-linejoin="round"/>
<defs>
<linearGradient id="paint0_linear_1092_1523" x1="48" y1="28.5073" x2="-20.5" y2="117.007" gradientUnits="userSpaceOnUse">
<stop stop-color="#E0A7F3"/>
<stop offset="0.249051" stop-color="#8E9FF5"/>
<stop offset="1" stop-color="#82DA9C"/>
</linearGradient>
</defs>
</svg>
