<svg width="32" height="32" viewBox="0 0 32 32" fill="none" xmlns="http://www.w3.org/2000/svg">
<circle cx="16" cy="16" r="16" fill="white"/>
<path d="M14.7158 7.74489L14.7615 7.81343V8.59019H17.4802L17.4573 8.38458V7.9505H17.4802L17.503 8.17897V8.59019H17.6858V8.2475H17.7086V8.75012L17.6629 8.65873L17.503 8.63589L17.4802 8.95573L17.4573 9.11565H17.4345L17.4573 8.63589H14.7386L14.7615 8.81866V11.3317L16.5663 11.3089L16.612 11.3317L16.5892 11.3774L14.7386 11.3546L14.7615 14.0504H15.4469V14.0961L14.7615 14.1189V14.6672L14.7386 15.9695H14.7158V14.0961H12.0428L11.9971 14.0732L12.02 14.8729V15.5354L11.9971 16.7919H14.1903L14.1446 16.8833V16.8376H12.02V17.3174L11.9743 17.3631L11.9514 16.7919V14.0504L14.7158 14.0732V11.3546H13.1166V11.3317H14.7158V8.63589H14.3503V8.59019H14.7158V7.74489Z" fill="#ED8BB3"/>
<path d="M20.2217 14.1875H20.2446V14.9642L20.2217 16.7919H21.5468L21.5925 16.7691V16.8376H20.2217V19.5334H22.7805L22.8033 19.4878V19.5563L22.6434 19.5791H20.6101L20.2217 19.5563V21.4068H20.1989L20.176 19.5791H19.8105L19.285 19.5563V19.5334H20.1989L20.176 16.8376H18.097L18.1656 16.7919H20.1989V14.85L20.2217 14.1875Z" fill="#0345E9"/>
<path d="M11.9743 17.4316H11.9972V19.5334H12.9338V19.602L12.0428 19.5791L12.02 19.6934V21.2926L11.9972 21.4525H11.9743L11.9515 19.5791H9.87247L9.3927 19.5563L9.41555 19.4878V19.5334H11.9743V17.4316Z" fill="#0345E9"/>
<path d="M9.25573 20.3788H9.27858V22.275H11.6546V22.2978H9.27858V24.8109H9.25573L9.23289 24.6053V22.2978H8.22766V22.275L9.23289 22.2521V20.493L9.25573 20.3788Z" fill="#067929"/>
<path d="M22.9403 20.2874H22.9632V22.275H23.9913L24.0141 22.2064L24.037 22.3207L22.9632 22.2978V24.7195H22.9403L22.9175 22.3207L20.5415 22.2978V22.275H22.9403V20.2874Z" fill="#067929"/>
<path d="M17.4573 13.068H17.4801L17.503 14.0504H20.3359L20.3816 14.0276V14.0961H17.4801V15.2155H17.4573V14.0961H16.8633L16.8405 14.1418L16.8633 14.0504L17.4573 14.0732V13.068Z" fill="#ED8BB3"/>
<path d="M19.003 10.9903L23.8224 21.7284C25.0887 24.4052 21.7912 26.984 20.3558 24.2226L15.7477 14.2033L17.9461 9.21471C18.8319 7.1989 15.8164 5.20864 14.564 7.27001C14.3929 7.66393 10.0546 16.9089 7.75759 21.7284C6.44505 24.7857 9.91169 27.0263 11.4356 24.2226L14.564 16.6975" stroke="url(#paint0_linear_1092_1542)" stroke-linecap="round" stroke-linejoin="round"/>
<defs>
<linearGradient id="paint0_linear_1092_1542" x1="16.6116" y1="11.6697" x2="2.99362" y2="29.2637" gradientUnits="userSpaceOnUse">
<stop stop-color="#E0A7F3"/>
<stop offset="0.249051" stop-color="#8E9FF5"/>
<stop offset="1" stop-color="#82DA9C"/>
</linearGradient>
</defs>
</svg>
